<svg width="68" height="66" viewBox="0 0 68 66" fill="none" xmlns="http://www.w3.org/2000/svg">
<path d="M1 27.8157V63.4674C1 64.0606 1.51676 64.5243 2.10539 64.4503C9.94591 63.4646 13.6104 61.0291 18.5182 54.7673C18.6552 54.5925 18.7307 54.3866 18.7307 54.1646C18.7304 51.5286 18.7287 33.9193 18.7307 30.8538C18.7329 27.5417 10.7523 27.8078 10.7345 30.845L10.7345 30.855C10.7376 31.0404 11.0806 52.0626 10.7345 52.4088C10.3869 52.7565 8.64855 52.7565 8.30089 52.4088C7.98099 52.0888 8.2498 32.9304 8.29477 29.8726C8.29875 29.6021 8.4034 29.3668 8.60054 29.1814C11.2488 26.6917 30.5891 8.50812 31.9419 7.21282C33.3943 5.82209 31.5942 -0.435707 29.5082 1.30258C27.5572 2.92839 4.31773 24.3221 1.31818 27.0842C1.11259 27.2735 1 27.5362 1 27.8157Z" fill="white" stroke="white" stroke-width="2"/>
<path d="M66.5386 27.8157V63.4674C66.5386 64.0606 66.0218 64.5243 65.4332 64.4503C57.5927 63.4646 53.9281 61.0291 49.0204 54.7673C48.8834 54.5925 48.8079 54.3866 48.8079 54.1646C48.8082 51.5286 48.8099 33.9193 48.8078 30.8538C48.8057 27.5417 56.7863 27.8078 56.804 30.845L56.804 30.855C56.801 31.0404 56.4579 52.0626 56.8041 52.4088C57.1517 52.7565 58.89 52.7565 59.2377 52.4088C59.5576 52.0888 59.2888 32.9304 59.2438 29.8726C59.2398 29.6021 59.1352 29.3668 58.938 29.1814C56.2898 26.6917 36.9495 8.50812 35.5967 7.21282C34.1443 5.82209 35.9444 -0.435707 38.0304 1.30258C39.9813 2.92839 63.2208 24.3221 66.2204 27.0842C66.426 27.2735 66.5386 27.5362 66.5386 27.8157Z" fill="white" stroke="white" stroke-width="2"/>
<rect x="23.2505" y="28.1176" width="9.03919" height="9.03919" fill="white"/>
<rect x="35.0708" y="28.1176" width="9.03919" height="9.03919" fill="white"/>
<rect x="23.2505" y="39.9381" width="9.03919" height="9.03919" fill="white"/>
<rect x="35.0708" y="39.9381" width="9.03919" height="9.03919" fill="white"/>
</svg>
