<svg width="1420" height="937" viewBox="0 0 1420 937" fill="none" xmlns="http://www.w3.org/2000/svg">
<g filter="url(#filter0_d_51_81)">
<rect x="70" y="50" width="1280" height="797" rx="10" fill="#FFE000"/>
</g>
<g clip-path="url(#clip0_51_81)">
<path d="M641.069 527.18C643.268 531.377 646.626 533.983 649.845 535.599C654.99 538.182 660.528 538.508 665.76 536.58L665.856 536.545" stroke="white" stroke-width="1.5" stroke-miterlimit="10" stroke-linecap="round" stroke-linejoin="round"/>
<path d="M668.81 535.182C671.77 533.546 674.768 531.037 676.787 527.196" stroke="white" stroke-width="1.5" stroke-miterlimit="10" stroke-linecap="round" stroke-linejoin="round"/>
<path d="M635.693 526.517C636.497 527.482 637.306 528.441 638.117 529.397C642.188 534.197 646.147 538.918 651.452 541.78C656.546 544.528 661.441 544.535 666.549 541.78C671.854 538.918 675.813 534.197 679.883 529.397C680.694 528.441 681.504 527.482 682.307 526.517" stroke="white" stroke-width="1.5" stroke-miterlimit="10" stroke-linecap="round" stroke-linejoin="round"/>
<path d="M654.417 528.135V531.253C654.417 531.747 654.818 532.148 655.313 532.148H658.085C658.58 532.148 658.981 531.747 658.981 531.253V528.226" stroke="white" stroke-width="1.5" stroke-miterlimit="10" stroke-linecap="round" stroke-linejoin="round"/>
<path d="M658.988 528.226V531.253C658.988 531.748 659.389 532.148 659.883 532.148H662.655C663.15 532.148 663.551 531.748 663.551 531.253V528.135" stroke="white" stroke-width="1.5" stroke-miterlimit="10" stroke-linecap="round" stroke-linejoin="round"/>
<path d="M663.583 528.135V531.377C663.583 531.803 663.929 532.148 664.355 532.148H666.744C667.171 532.148 667.516 531.803 667.516 531.377V527.953" stroke="white" stroke-width="1.5" stroke-miterlimit="10" stroke-linecap="round" stroke-linejoin="round"/>
<path d="M667.516 527.954V530.065C667.516 530.468 667.843 530.795 668.246 530.795H670.507C670.911 530.795 671.238 530.468 671.238 530.065V527.703" stroke="white" stroke-width="1.5" stroke-miterlimit="10" stroke-linecap="round" stroke-linejoin="round"/>
<path d="M654.418 528.135V531.377C654.418 531.803 654.072 532.148 653.646 532.148H651.256C650.83 532.148 650.484 531.803 650.484 531.377V527.953" stroke="white" stroke-width="1.5" stroke-miterlimit="10" stroke-linecap="round" stroke-linejoin="round"/>
<path d="M650.484 527.954V530.065C650.484 530.468 650.157 530.795 649.754 530.795H647.493C647.09 530.795 646.763 530.468 646.763 530.065V527.703" stroke="white" stroke-width="1.5" stroke-miterlimit="10" stroke-linecap="round" stroke-linejoin="round"/>
<path d="M650.443 519.133C653.36 518.067 656.34 517.875 659 520.19C664.195 515.67 670.611 520.71 675.393 523.144C677.678 524.307 680.002 525.381 682.297 526.521C682.297 526.521 671.24 528.17 659.01 528.226V528.227C659.007 528.227 659.003 528.227 659 528.227C658.997 528.227 658.994 528.227 658.99 528.227V528.226C646.761 528.17 635.703 526.521 635.703 526.521C637.998 525.381 640.322 524.307 642.607 523.144C644.068 522.401 645.681 521.414 647.365 520.531L647.507 520.457" stroke="white" stroke-width="1.5" stroke-miterlimit="10" stroke-linecap="round" stroke-linejoin="round"/>
<path d="M674.36 542.044C674.056 542.689 673.176 544.264 671.623 544.8C671.503 544.841 671.503 545.012 671.623 545.054C673.176 545.589 674.056 547.164 674.36 547.809C674.409 547.913 674.556 547.913 674.605 547.809C674.909 547.164 675.79 545.589 677.342 545.054C677.462 545.012 677.462 544.841 677.342 544.8C675.79 544.264 674.909 542.689 674.605 542.044C674.556 541.941 674.409 541.941 674.36 542.044Z" stroke="white" stroke-width="1.5" stroke-miterlimit="10" stroke-linecap="round" stroke-linejoin="round"/>
<path d="M644.462 509.767C644.044 510.656 642.83 512.825 640.693 513.563C640.527 513.62 640.527 513.855 640.693 513.913C642.83 514.65 644.044 516.82 644.462 517.708C644.529 517.85 644.732 517.85 644.799 517.708C645.218 516.82 646.431 514.65 648.569 513.913C648.734 513.855 648.734 513.62 648.569 513.563C646.431 512.825 645.218 510.656 644.799 509.767C644.732 509.625 644.529 509.625 644.462 509.767Z" stroke="white" stroke-width="1.5" stroke-miterlimit="10" stroke-linecap="round" stroke-linejoin="round"/>
<path d="M667.441 546.291C667.022 547.179 665.809 549.348 663.671 550.086C663.505 550.143 663.505 550.379 663.671 550.436C665.809 551.174 667.022 553.343 667.441 554.231C667.508 554.374 667.71 554.374 667.777 554.231C668.196 553.343 669.409 551.174 671.547 550.436C671.713 550.379 671.713 550.143 671.547 550.086C669.409 549.348 668.196 547.179 667.777 546.291C667.71 546.149 667.508 546.149 667.441 546.291Z" stroke="white" stroke-width="1.5" stroke-miterlimit="10" stroke-linecap="round" stroke-linejoin="round"/>
</g>
<defs>
<filter id="filter0_d_51_81" x="0" y="0" width="1420" height="937" filterUnits="userSpaceOnUse" color-interpolation-filters="sRGB">
<feFlood flood-opacity="0" result="BackgroundImageFix"/>
<feColorMatrix in="SourceAlpha" type="matrix" values="0 0 0 0 0 0 0 0 0 0 0 0 0 0 0 0 0 0 127 0" result="hardAlpha"/>
<feOffset dy="20"/>
<feGaussianBlur stdDeviation="35"/>
<feComposite in2="hardAlpha" operator="out"/>
<feColorMatrix type="matrix" values="0 0 0 0 0.901961 0 0 0 0 0.964706 0 0 0 0 0.996078 0 0 0 0.3 0"/>
<feBlend mode="normal" in2="BackgroundImageFix" result="effect1_dropShadow_51_81"/>
<feBlend mode="normal" in="SourceGraphic" in2="effect1_dropShadow_51_81" result="shape"/>
</filter>
<clipPath id="clip0_51_81">
<rect width="48" height="48" fill="white" transform="translate(635 508)"/>
</clipPath>
</defs>
</svg>
