<svg width="7" height="32" viewBox="0 0 7 32" fill="none" xmlns="http://www.w3.org/2000/svg">
<g clip-path="url(#clip0_51_181)">
<path d="M6.01432 16.719C6.01432 16.7919 5.98306 16.8597 5.92055 16.9222L1.76339 21.0793C1.70088 21.1418 1.63316 21.1731 1.56022 21.1731C1.47687 21.1731 1.40915 21.1418 1.35705 21.0793L0.903829 20.6417C0.841315 20.5792 0.810059 20.5063 0.810059 20.4229C0.810059 20.35 0.841315 20.2823 0.903829 20.2198L4.42022 16.719L0.903829 13.2026C0.841315 13.1401 0.810059 13.0724 0.810059 12.9994C0.810059 12.9265 0.841315 12.8588 0.903829 12.7963L1.35705 12.343C1.40915 12.2909 1.47687 12.2649 1.56022 12.2649C1.63316 12.2649 1.70088 12.2909 1.76339 12.343L5.92055 16.5158C5.98306 16.5679 6.01432 16.6356 6.01432 16.719Z" fill="#414A6B"/>
</g>
<defs>
<clipPath id="clip0_51_181">
<rect width="5.72" height="32" fill="white" transform="matrix(1 0 0 -1 0.810059 32)"/>
</clipPath>
</defs>
</svg>
