<svg width="17" height="18" viewBox="0 0 17 18" fill="none" xmlns="http://www.w3.org/2000/svg">
<g clip-path="url(#clip0_51_219)">
<path d="M15.9692 4.25391C15.5122 4.91016 14.9673 5.47266 14.3345 5.94141C14.3462 6.03516 14.3521 6.17578 14.3521 6.36328C14.3521 7.23047 14.2231 8.09766 13.9653 8.96484C13.7075 9.83203 13.3208 10.6641 12.8052 11.4609C12.2896 12.2578 11.6743 12.9609 10.9595 13.5703C10.2329 14.1914 9.36572 14.6836 8.35791 15.0469C7.3501 15.4102 6.27197 15.5918 5.12354 15.5918C3.30713 15.5918 1.64307 15.1055 0.131348 14.1328C0.365723 14.1562 0.629395 14.168 0.922363 14.168C2.42236 14.168 3.76416 13.7051 4.94775 12.7793C4.24463 12.7676 3.61182 12.5566 3.04932 12.1465C2.49854 11.7246 2.11768 11.1855 1.90674 10.5293C2.12939 10.5645 2.33447 10.582 2.52197 10.582C2.81494 10.582 3.10205 10.5469 3.3833 10.4766C2.6333 10.3242 2.01221 9.94922 1.52002 9.35156C1.02783 8.76562 0.781738 8.08008 0.781738 7.29492V7.25977C1.23877 7.50586 1.7251 7.64062 2.24072 7.66406C1.79541 7.37109 1.44385 6.98438 1.18604 6.50391C0.928223 6.03516 0.799316 5.51953 0.799316 4.95703C0.799316 4.37109 0.945801 3.82617 1.23877 3.32227C2.04736 4.31836 3.03174 5.11523 4.19189 5.71289C5.35205 6.32227 6.6001 6.65625 7.93604 6.71484C7.87744 6.46875 7.84814 6.22266 7.84814 5.97656C7.84814 5.07422 8.16455 4.30664 8.79736 3.67383C9.43018 3.04102 10.1978 2.72461 11.1001 2.72461C12.0376 2.72461 12.8228 3.07031 13.4556 3.76172C14.1938 3.62109 14.8853 3.35742 15.5298 2.9707C15.272 3.74414 14.7915 4.3418 14.0884 4.76367C14.7212 4.69336 15.3481 4.52344 15.9692 4.25391Z" fill="black"/>
</g>
<defs>
<clipPath id="clip0_51_219">
<rect width="16.72" height="18" fill="white" transform="matrix(1 0 0 -1 0.129883 18)"/>
</clipPath>
</defs>
</svg>
