<svg width="7" height="32" viewBox="0 0 7 32" fill="none" xmlns="http://www.w3.org/2000/svg">
<g clip-path="url(#clip0_51_178)">
<path d="M5.73405 16.719C5.73405 16.7919 5.70279 16.8597 5.64028 16.9222L1.48312 21.0793C1.4206 21.1418 1.35288 21.1731 1.27995 21.1731C1.1966 21.1731 1.12887 21.1418 1.07678 21.0793L0.623556 20.6417C0.561042 20.5792 0.529785 20.5063 0.529785 20.4229C0.529785 20.35 0.561042 20.2823 0.623556 20.2198L4.13995 16.719L0.623556 13.2026C0.561042 13.1401 0.529785 13.0724 0.529785 12.9994C0.529785 12.9265 0.561042 12.8588 0.623556 12.7963L1.07678 12.343C1.12887 12.2909 1.1966 12.2649 1.27995 12.2649C1.35288 12.2649 1.4206 12.2909 1.48312 12.343L5.64028 16.5158C5.70279 16.5679 5.73405 16.6356 5.73405 16.719Z" fill="#414A6B"/>
</g>
<defs>
<clipPath id="clip0_51_178">
<rect width="5.72" height="32" fill="white" transform="matrix(1 0 0 -1 0.529785 32)"/>
</clipPath>
</defs>
</svg>
