<svg width="18" height="18" viewBox="0 0 18 18" fill="none" xmlns="http://www.w3.org/2000/svg">
<path d="M17.8242 5.39648C17.8242 5.39648 17.7715 5.16797 17.666 4.71094C17.5605 4.25391 17.373 3.89062 17.1035 3.62109C16.7637 3.25781 16.4209 3.04395 16.0752 2.97949C15.7295 2.91504 15.4688 2.87109 15.293 2.84766C14.6719 2.80078 13.9922 2.76562 13.2539 2.74219C12.5156 2.71875 11.833 2.70117 11.2061 2.68945C10.5791 2.67773 10.0547 2.67188 9.63281 2.67188C9.21094 2.67188 9 2.67188 9 2.67188C9 2.67188 8.78906 2.67188 8.36719 2.67188C7.94531 2.67188 7.4209 2.67773 6.79395 2.68945C6.16699 2.70117 5.48438 2.71875 4.74609 2.74219C4.00781 2.76562 3.32812 2.80078 2.70703 2.84766C2.53125 2.87109 2.27051 2.91504 1.9248 2.97949C1.5791 3.04395 1.23633 3.25781 0.896484 3.62109C0.626953 3.89062 0.439453 4.25391 0.333984 4.71094C0.228516 5.16797 0.175781 5.39648 0.175781 5.39648C0.175781 5.39648 0.146484 5.70117 0.0878906 6.31055C0.0292969 6.91992 0 7.58789 0 8.31445V9.68555C0 10.4121 0.0292969 11.0771 0.0878906 11.6807C0.146484 12.2842 0.175781 12.5859 0.175781 12.5859C0.175781 12.5859 0.228516 12.8174 0.333984 13.2803C0.439453 13.7432 0.626953 14.1094 0.896484 14.3789C1.23633 14.7422 1.60254 14.9531 1.99512 15.0117C2.3877 15.0703 2.68359 15.1172 2.88281 15.1523C3.24609 15.1875 3.76758 15.2168 4.44727 15.2402C5.12695 15.2637 5.80371 15.2812 6.47754 15.293C7.15137 15.3047 7.74023 15.3164 8.24414 15.3281C8.74805 15.3281 9 15.3281 9 15.3281C9 15.3281 9.21094 15.3281 9.63281 15.3281C10.0547 15.3281 10.5791 15.3193 11.2061 15.3018C11.833 15.2842 12.5156 15.2637 13.2539 15.2402C13.9922 15.2168 14.6777 15.1816 15.3105 15.1348C15.4863 15.123 15.7441 15.085 16.084 15.0205C16.4238 14.9561 16.7637 14.7422 17.1035 14.3789C17.373 14.1094 17.5605 13.7432 17.666 13.2803C17.7715 12.8174 17.8242 12.5859 17.8242 12.5859C17.8242 12.5859 17.8535 12.2842 17.9121 11.6807C17.9707 11.0771 18 10.4121 18 9.68555V8.31445C18 7.58789 17.9707 6.91992 17.9121 6.31055C17.8535 5.70117 17.8242 5.39648 17.8242 5.39648ZM7.13672 11.3379V6.27539L12.0059 8.80664L7.13672 11.3379Z" fill="black"/>
</svg>
