<svg width="7" height="32" viewBox="0 0 7 32" fill="none" xmlns="http://www.w3.org/2000/svg">
<g clip-path="url(#clip0_51_175)">
<path d="M5.6442 16.719C5.6442 16.7919 5.61295 16.8597 5.55043 16.9222L1.39327 21.0793C1.33076 21.1418 1.26304 21.1731 1.19011 21.1731C1.10675 21.1731 1.03903 21.1418 0.986936 21.0793L0.533712 20.6417C0.471198 20.5792 0.439941 20.5063 0.439941 20.4229C0.439941 20.35 0.471198 20.2823 0.533712 20.2198L4.05011 16.719L0.533712 13.2026C0.471198 13.1401 0.439941 13.0724 0.439941 12.9994C0.439941 12.9265 0.471198 12.8588 0.533712 12.7963L0.986936 12.343C1.03903 12.2909 1.10675 12.2649 1.19011 12.2649C1.26304 12.2649 1.33076 12.2909 1.39327 12.343L5.55043 16.5158C5.61295 16.5679 5.6442 16.6356 5.6442 16.719Z" fill="#414A6B"/>
</g>
<defs>
<clipPath id="clip0_51_175">
<rect width="5.72" height="32" fill="white" transform="matrix(1 0 0 -1 0.439941 32)"/>
</clipPath>
</defs>
</svg>
