<svg width="6" height="32" viewBox="0 0 6 32" fill="none" xmlns="http://www.w3.org/2000/svg">
<g clip-path="url(#clip0_51_172)">
<path d="M5.47428 16.719C5.47428 16.7919 5.44303 16.8597 5.38051 16.9222L1.22335 21.0793C1.16084 21.1418 1.09312 21.1731 1.02018 21.1731C0.936832 21.1731 0.869109 21.1418 0.817014 21.0793L0.36379 20.6417C0.301276 20.5792 0.27002 20.5063 0.27002 20.4229C0.27002 20.35 0.301276 20.2823 0.36379 20.2198L3.88018 16.719L0.36379 13.2026C0.301276 13.1401 0.27002 13.0724 0.27002 12.9994C0.27002 12.9265 0.301276 12.8588 0.36379 12.7963L0.817014 12.343C0.869109 12.2909 0.936832 12.2649 1.02018 12.2649C1.09312 12.2649 1.16084 12.2909 1.22335 12.343L5.38051 16.5158C5.44303 16.5679 5.47428 16.6356 5.47428 16.719Z" fill="#414A6B"/>
</g>
<defs>
<clipPath id="clip0_51_172">
<rect width="5.72" height="32" fill="white" transform="matrix(1 0 0 -1 0.27002 32)"/>
</clipPath>
</defs>
</svg>
