<svg width="41" height="41" viewBox="0 0 41 41" fill="none" xmlns="http://www.w3.org/2000/svg">
<path d="M23.9235 17.501C23.7611 17.4999 23.6048 17.5631 23.4889 17.6768C23.3729 17.7905 23.3066 17.9454 23.3044 18.1078V22.6424C23.3066 22.8052 23.3732 22.9605 23.4896 23.0742C23.606 23.1879 23.7628 23.2509 23.9255 23.2492H37.5847C37.7475 23.2509 37.9042 23.1879 38.0207 23.0742C38.1371 22.9605 38.2037 22.8052 38.2058 22.6424V18.1078C38.2037 17.9451 38.1371 17.7898 38.0207 17.6761C37.9042 17.5623 37.7475 17.4994 37.5847 17.501H23.9235ZM32.2998 3.07725C34.1899 3.16745 35.549 3.54055 36.41 4.33185C37.2608 5.11495 37.6974 6.2486 37.7836 7.7492V12.048C37.7792 12.4141 37.6298 12.7636 37.368 13.0195C37.1063 13.2755 36.7536 13.4172 36.3875 13.4133C36.206 13.4155 36.0259 13.3819 35.8575 13.3145C35.689 13.247 35.5355 13.1471 35.4057 13.0203C35.2758 12.8935 35.1722 12.7424 35.1008 12.5756C35.0294 12.4087 34.9915 12.2295 34.9894 12.048L34.9915 7.8271C34.9464 7.0481 34.7598 6.5643 34.4933 6.3183C34.235 6.0805 33.4478 5.8673 32.2321 5.8058H5.42635C4.3255 5.8468 3.61005 6.0559 3.2636 6.35315C2.9971 6.5807 2.7962 7.208 2.79415 8.29245L2.788 32.4209C2.8905 33.4746 3.12215 34.1778 3.4194 34.5283C3.6449 34.7948 4.34395 35.0613 5.37305 35.1925H32.2608C33.5196 35.2171 34.2616 35.0285 34.5117 34.7764C34.7885 34.4955 34.9894 33.7575 34.9894 32.5501V28.3578C34.9894 27.6055 35.6147 26.9925 36.3875 26.9925C37.1583 26.9925 37.7836 27.6055 37.7836 28.3578V32.5501C37.7836 34.3951 37.4063 35.7747 36.5228 36.6706C35.6126 37.5931 34.1653 37.9621 32.2321 37.9211L5.207 37.9149C3.36815 37.7017 2.05 37.1974 1.26485 36.2688C0.5535 35.4283 0.15785 34.229 0 32.5521V8.2904C0.0041 6.4946 0.4346 5.14365 1.4227 4.29905C2.3288 3.52005 3.6367 3.1408 5.37305 3.0752L32.2998 3.07725ZM37.5847 14.7704C39.4707 14.7704 41 16.2649 41 18.1078V22.6424C41 24.4854 39.4707 25.9798 37.5847 25.9798H23.9255C22.0395 25.9798 20.5103 24.4833 20.5103 22.6424V18.1078C20.5103 16.2649 22.0395 14.7704 23.9255 14.7704H37.5847ZM27.3408 18.7474C26.3979 18.7474 25.6332 19.4854 25.6332 20.3936C25.6332 21.3038 26.3979 22.0397 27.3408 22.0397C28.2838 22.0397 29.0485 21.3017 29.0485 20.3936C29.0485 19.4834 28.2838 18.7454 27.3408 18.7454" fill="black"/>
</svg>
